<svg version="1.1" viewBox="0.0 0.0 960.0 540.0" fill="none" stroke="none" stroke-linecap="square" stroke-miterlimit="10" xmlns:xlink="http://www.w3.org/1999/xlink" xmlns="http://www.w3.org/2000/svg"><clipPath id="p.0"><path d="m0 0l960.0 0l0 540.0l-960.0 0l0 -540.0z" clip-rule="nonzero"/></clipPath><g clip-path="url(#p.0)"><path fill="#000000" d="m0 0l960.0 0l0 540.0l-960.0 0z" fill-rule="evenodd"/><path fill="#00cdac" d="m602.28345 0l5.826782 0l0 104.40945l-5.826782 0z" fill-rule="evenodd"/><path stroke="#000000" stroke-width="1.0" stroke-linejoin="round" stroke-linecap="butt" d="m602.28345 0l5.826782 0l0 104.40945l-5.826782 0z" fill-rule="evenodd"/><path fill="#00cdac" d="m622.1496 2.6141732l-6.488159 0l0 145.73228l6.488159 0z" fill-rule="evenodd"/><path stroke="#000000" stroke-width="1.0" stroke-linejoin="round" stroke-linecap="butt" d="m622.1496 2.6141732l-6.488159 0l0 145.73228l6.488159 0z" fill-rule="evenodd"/><path fill="#00cdac" d="m732.57745 0l6.488159 0l0 179.55905l-6.488159 0z" fill-rule="evenodd"/><path stroke="#000000" stroke-width="1.0" stroke-linejoin="round" stroke-linecap="butt" d="m732.57745 0l6.488159 0l0 179.55905l-6.488159 0z" fill-rule="evenodd"/><path fill="#00cdac" d="m656.62994 0l6.488159 0l0 111.90551l-6.488159 0z" fill-rule="evenodd"/><path stroke="#000000" stroke-width="1.0" stroke-linejoin="round" stroke-linecap="butt" d="m656.62994 0l6.488159 0l0 111.90551l-6.488159 0z" fill-rule="evenodd"/><path fill="#00cdac" d="m642.4083 3.7480314l5.826782 0l0 104.40945l-5.826782 0z" fill-rule="evenodd"/><path stroke="#000000" stroke-width="1.0" stroke-linejoin="round" stroke-linecap="butt" d="m642.4083 3.7480314l5.826782 0l0 104.40945l-5.826782 0z" fill-rule="evenodd"/><path fill="#00cdac" d="m628.1877 3.7480314l5.826782 0l0 104.40945l-5.826782 0z" fill-rule="evenodd"/><path stroke="#000000" stroke-width="1.0" stroke-linejoin="round" stroke-linecap="butt" d="m628.1877 3.7480314l5.826782 0l0 104.40945l-5.826782 0z" fill-rule="evenodd"/><path fill="#00cdac" d="m669.64307 0l6.488159 0l0 161.35432l-6.488159 0z" fill-rule="evenodd"/><path stroke="#000000" stroke-width="1.0" stroke-linejoin="round" stroke-linecap="butt" d="m669.64307 0l6.488159 0l0 161.35432l-6.488159 0z" fill-rule="evenodd"/><path fill="#00cdac" d="m683.31757 2.6141732l5.826782 0l0 128.81891l-5.826782 0z" fill-rule="evenodd"/><path stroke="#000000" stroke-width="1.0" stroke-linejoin="round" stroke-linecap="butt" d="m683.31757 2.6141732l5.826782 0l0 128.81891l-5.826782 0z" fill-rule="evenodd"/><path fill="#00cdac" d="m696.3307 2.6141732l5.826782 0l0 145.73228l-5.826782 0z" fill-rule="evenodd"/><path stroke="#000000" stroke-width="1.0" stroke-linejoin="round" stroke-linecap="butt" d="m696.3307 2.6141732l5.826782 0l0 145.73228l-5.826782 0z" fill-rule="evenodd"/><path fill="#00cdac" d="m713.8819 4.5669293l-4.9763794 0l0 335.68506l4.9763794 0z" fill-rule="evenodd"/><path stroke="#000000" stroke-width="1.0" stroke-linejoin="round" stroke-linecap="butt" d="m713.8819 4.5669293l-4.9763794 0l0 335.68506l4.9763794 0z" fill-rule="evenodd"/><path fill="#00cdac" d="m720.62994 2.6141732l5.826721 0l0 161.35434l-5.826721 0z" fill-rule="evenodd"/><path stroke="#000000" stroke-width="1.0" stroke-linejoin="round" stroke-linecap="butt" d="m720.62994 2.6141732l5.826721 0l0 161.35434l-5.826721 0z" fill-rule="evenodd"/><path fill="#00cdac" d="m747.10236 0l4.9763794 0l0 391.65353l-4.9763794 0z" fill-rule="evenodd"/><path stroke="#000000" stroke-width="1.0" stroke-linejoin="round" stroke-linecap="butt" d="m747.10236 0l4.9763794 0l0 391.65353l-4.9763794 0z" fill-rule="evenodd"/><path fill="#00cdac" d="m758.19946 0l5.826782 0l0 208.18898l-5.826782 0z" fill-rule="evenodd"/><path stroke="#000000" stroke-width="1.0" stroke-linejoin="round" stroke-linecap="butt" d="m758.19946 0l5.826782 0l0 208.18898l-5.826782 0z" fill-rule="evenodd"/><path fill="#00cdac" d="m769.48553 3.8897638l5.826782 0l0 222.51968l-5.826782 0z" fill-rule="evenodd"/><path stroke="#000000" stroke-width="1.0" stroke-linejoin="round" stroke-linecap="butt" d="m769.48553 3.8897638l5.826782 0l0 222.51968l-5.826782 0z" fill-rule="evenodd"/><path fill="#00cdac" d="m943.24146 0l-5.826782 0l0 493.16534l5.826782 0z" fill-rule="evenodd"/><path stroke="#000000" stroke-width="1.0" stroke-linejoin="round" stroke-linecap="butt" d="m943.24146 0l-5.826782 0l0 493.16534l5.826782 0z" fill-rule="evenodd"/><path fill="#00cdac" d="m932.2805 0l-6.48822 0l0 465.82678l6.48822 0z" fill-rule="evenodd"/><path stroke="#000000" stroke-width="1.0" stroke-linejoin="round" stroke-linecap="butt" d="m932.2805 0l-6.48822 0l0 465.82678l6.48822 0z" fill-rule="evenodd"/><path fill="#00cdac" d="m920.0 0l-5.826782 0l0 446.29922l5.826782 0z" fill-rule="evenodd"/><path stroke="#000000" stroke-width="1.0" stroke-linejoin="round" stroke-linecap="butt" d="m920.0 0l-5.826782 0l0 446.29922l5.826782 0z" fill-rule="evenodd"/><path fill="#00cdac" d="m909.0396 0l-6.48822 0l0 424.18896l6.48822 0z" fill-rule="evenodd"/><path stroke="#000000" stroke-width="1.0" stroke-linejoin="round" stroke-linecap="butt" d="m909.0396 0l-6.48822 0l0 424.18896l6.48822 0z" fill-rule="evenodd"/><path fill="#00cdac" d="m896.7559 0l-5.826782 0l0 403.3701l5.826782 0z" fill-rule="evenodd"/><path stroke="#000000" stroke-width="1.0" stroke-linejoin="round" stroke-linecap="butt" d="m896.7559 0l-5.826782 0l0 403.3701l5.826782 0z" fill-rule="evenodd"/><path fill="#00cdac" d="m884.28296 0l-4.9763794 0l0 430.70865l4.9763794 0z" fill-rule="evenodd"/><path stroke="#000000" stroke-width="1.0" stroke-linejoin="round" stroke-linecap="butt" d="m884.28296 0l-4.9763794 0l0 430.70865l4.9763794 0z" fill-rule="evenodd"/><path fill="#00cdac" d="m873.51404 0l-5.826721 0l0 363.02362l5.826721 0z" fill-rule="evenodd"/><path stroke="#000000" stroke-width="1.0" stroke-linejoin="round" stroke-linecap="butt" d="m873.51404 0l-5.826721 0l0 363.02362l5.826721 0z" fill-rule="evenodd"/><path fill="#00cdac" d="m861.8924 0l-5.826782 0l0 344.8189l5.826782 0z" fill-rule="evenodd"/><path stroke="#000000" stroke-width="1.0" stroke-linejoin="round" stroke-linecap="butt" d="m861.8924 0l-5.826782 0l0 344.8189l5.826782 0z" fill-rule="evenodd"/><path fill="#00cdac" d="m850.2703 0l-5.826782 0l0 411.1811l5.826782 0z" fill-rule="evenodd"/><path stroke="#000000" stroke-width="1.0" stroke-linejoin="round" stroke-linecap="butt" d="m850.2703 0l-5.826782 0l0 411.1811l5.826782 0z" fill-rule="evenodd"/><path fill="#00cdac" d="m839.3123 0l-6.488159 0l0 305.7953l6.488159 0z" fill-rule="evenodd"/><path stroke="#000000" stroke-width="1.0" stroke-linejoin="round" stroke-linecap="butt" d="m839.3123 0l-6.488159 0l0 305.7953l6.488159 0z" fill-rule="evenodd"/><path fill="#00cdac" d="m788.4541 0l-6.488159 0l0 344.8189l6.488159 0z" fill-rule="evenodd"/><path stroke="#000000" stroke-width="1.0" stroke-linejoin="round" stroke-linecap="butt" d="m788.4541 0l-6.488159 0l0 344.8189l6.488159 0z" fill-rule="evenodd"/><path fill="#00cdac" d="m794.4451 3.2440944l5.826782 0l0 253.73228l-5.826782 0z" fill-rule="evenodd"/><path stroke="#000000" stroke-width="1.0" stroke-linejoin="round" stroke-linecap="butt" d="m794.4451 3.2440944l5.826782 0l0 253.73228l-5.826782 0z" fill-rule="evenodd"/><path fill="#00cdac" d="m807.4588 3.2440944l5.826782 0l0 266.77167l-5.826782 0z" fill-rule="evenodd"/><path stroke="#000000" stroke-width="1.0" stroke-linejoin="round" stroke-linecap="butt" d="m807.4588 3.2440944l5.826782 0l0 266.77167l-5.826782 0z" fill-rule="evenodd"/><path fill="#00cdac" d="m821.32043 2.6141732l4.9763794 0l0 313.5748l-4.9763794 0z" fill-rule="evenodd"/><path stroke="#000000" stroke-width="1.0" stroke-linejoin="round" stroke-linecap="butt" d="m821.32043 2.6141732l4.9763794 0l0 313.5748l-4.9763794 0z" fill-rule="evenodd"/><path fill="#00cdac" d="m584.6863 0l-6.48822 0l0 195.1811l6.48822 0z" fill-rule="evenodd"/><path stroke="#000000" stroke-width="1.0" stroke-linejoin="round" stroke-linecap="butt" d="m584.6863 0l-6.48822 0l0 195.1811l6.48822 0z" fill-rule="evenodd"/><path fill="#00cdac" d="m590.33203 3.2440944l5.826782 0l0 104.40945l-5.826782 0z" fill-rule="evenodd"/><path stroke="#000000" stroke-width="1.0" stroke-linejoin="round" stroke-linecap="butt" d="m590.33203 3.2440944l5.826782 0l0 104.40945l-5.826782 0z" fill-rule="evenodd"/><path fill="#00cdac" d="m566.7231 3.2440944l5.826782 0l0 104.40945l-5.826782 0z" fill-rule="evenodd"/><path stroke="#000000" stroke-width="1.0" stroke-linejoin="round" stroke-linecap="butt" d="m566.7231 3.2440944l5.826782 0l0 104.40945l-5.826782 0z" fill-rule="evenodd"/><path fill="#00cdac" d="m553.7113 3.2440944l5.826782 0l0 104.40945l-5.826782 0z" fill-rule="evenodd"/><path stroke="#000000" stroke-width="1.0" stroke-linejoin="round" stroke-linecap="butt" d="m553.7113 3.2440944l5.826782 0l0 104.40945l-5.826782 0z" fill-rule="evenodd"/><path fill="#00cdac" d="m541.23096 3.2440944l5.826782 0l0 104.40945l-5.826782 0z" fill-rule="evenodd"/><path stroke="#000000" stroke-width="1.0" stroke-linejoin="round" stroke-linecap="butt" d="m541.23096 3.2440944l5.826782 0l0 104.40945l-5.826782 0z" fill-rule="evenodd"/><path fill="#00cdac" d="m306.856 0l-4.9763794 0l0 161.35432l4.9763794 0z" fill-rule="evenodd"/><path stroke="#000000" stroke-width="1.0" stroke-linejoin="round" stroke-linecap="butt" d="m306.856 0l-4.9763794 0l0 161.35432l4.9763794 0z" fill-rule="evenodd"/><path fill="#00cdac" d="m296.3147 3.2440944l-4.9763794 0l0 104.40945l4.9763794 0z" fill-rule="evenodd"/><path stroke="#000000" stroke-width="1.0" stroke-linejoin="round" stroke-linecap="butt" d="m296.3147 3.2440944l-4.9763794 0l0 104.40945l4.9763794 0z" fill-rule="evenodd"/><path fill="#00cdac" d="m195.35007 0l-5.5433044 0l0 179.55905l5.5433044 0z" fill-rule="evenodd"/><path stroke="#000000" stroke-width="1.0" stroke-linejoin="round" stroke-linecap="butt" d="m195.35007 0l-5.5433044 0l0 179.55905l5.5433044 0z" fill-rule="evenodd"/><path fill="#00cdac" d="m260.34622 0l-5.5433044 0l0 111.90551l5.5433044 0z" fill-rule="evenodd"/><path stroke="#000000" stroke-width="1.0" stroke-linejoin="round" stroke-linecap="butt" d="m260.34622 0l-5.5433044 0l0 111.90551l5.5433044 0z" fill-rule="evenodd"/><path fill="#00cdac" d="m272.5171 2.6141732l-4.9763794 0l0 128.81891l4.9763794 0z" fill-rule="evenodd"/><path stroke="#000000" stroke-width="1.0" stroke-linejoin="round" stroke-linecap="butt" d="m272.5171 2.6141732l-4.9763794 0l0 128.81891l4.9763794 0z" fill-rule="evenodd"/><path fill="#00cdac" d="m284.68735 3.7480314l-4.9763794 0l0 154.83464l4.9763794 0z" fill-rule="evenodd"/><path stroke="#000000" stroke-width="1.0" stroke-linejoin="round" stroke-linecap="butt" d="m284.68735 3.7480314l-4.9763794 0l0 154.83464l4.9763794 0z" fill-rule="evenodd"/><path fill="#00cdac" d="m248.64351 0l-4.9763794 0l0 118.42519l4.9763794 0z" fill-rule="evenodd"/><path stroke="#000000" stroke-width="1.0" stroke-linejoin="round" stroke-linecap="butt" d="m248.64351 0l-4.9763794 0l0 118.42519l4.9763794 0z" fill-rule="evenodd"/><path fill="#00cdac" d="m239.01826 2.6141732l-6.4881744 0l0 145.73228l6.4881744 0z" fill-rule="evenodd"/><path stroke="#000000" stroke-width="1.0" stroke-linejoin="round" stroke-linecap="butt" d="m239.01826 2.6141732l-6.4881744 0l0 145.73228l6.4881744 0z" fill-rule="evenodd"/><path fill="#00cdac" d="m227.88184 2.6141732l-6.4881897 0l0 179.55907l6.4881897 0z" fill-rule="evenodd"/><path stroke="#000000" stroke-width="1.0" stroke-linejoin="round" stroke-linecap="butt" d="m227.88184 2.6141732l-6.4881897 0l0 179.55907l6.4881897 0z" fill-rule="evenodd"/><path fill="#00cdac" d="m216.14467 2.6141732l-4.9763794 0l0 208.18898l4.9763794 0z" fill-rule="evenodd"/><path stroke="#000000" stroke-width="1.0" stroke-linejoin="round" stroke-linecap="butt" d="m216.14467 2.6141732l-4.9763794 0l0 208.18898l4.9763794 0z" fill-rule="evenodd"/><path fill="#00cdac" d="m200.77032 2.6141732l4.9763794 0l0 313.5748l-4.9763794 0z" fill-rule="evenodd"/><path stroke="#000000" stroke-width="1.0" stroke-linejoin="round" stroke-linecap="butt" d="m200.77032 2.6141732l4.9763794 0l0 313.5748l-4.9763794 0z" fill-rule="evenodd"/><path fill="#00cdac" d="m183.64734 0l-4.9763794 0l0 195.1811l4.9763794 0z" fill-rule="evenodd"/><path stroke="#000000" stroke-width="1.0" stroke-linejoin="round" stroke-linecap="butt" d="m183.64734 0l-4.9763794 0l0 195.1811l4.9763794 0z" fill-rule="evenodd"/><path fill="#00cdac" d="m173.42262 0l-4.9763794 0l0 208.18898l4.9763794 0z" fill-rule="evenodd"/><path stroke="#000000" stroke-width="1.0" stroke-linejoin="round" stroke-linecap="butt" d="m173.42262 0l-4.9763794 0l0 208.18898l4.9763794 0z" fill-rule="evenodd"/><path fill="#00cdac" d="m163.76385 3.8897638l-4.9763794 0l0 266.77164l4.9763794 0z" fill-rule="evenodd"/><path stroke="#000000" stroke-width="1.0" stroke-linejoin="round" stroke-linecap="butt" d="m163.76385 3.8897638l-4.9763794 0l0 266.77164l4.9763794 0z" fill-rule="evenodd"/><path fill="#00cdac" d="m15.062992 0l4.9763775 0l0 493.16534l-4.9763775 0z" fill-rule="evenodd"/><path stroke="#000000" stroke-width="1.0" stroke-linejoin="round" stroke-linecap="butt" d="m15.062992 0l4.9763775 0l0 493.16534l-4.9763775 0z" fill-rule="evenodd"/><path fill="#00cdac" d="m24.443434 0l5.5433064 0l0 465.82678l-5.5433064 0z" fill-rule="evenodd"/><path stroke="#000000" stroke-width="1.0" stroke-linejoin="round" stroke-linecap="butt" d="m24.443434 0l5.5433064 0l0 465.82678l-5.5433064 0z" fill-rule="evenodd"/><path fill="#00cdac" d="m34.95313 0l4.9763794 0l0 446.29922l-4.9763794 0z" fill-rule="evenodd"/><path stroke="#000000" stroke-width="1.0" stroke-linejoin="round" stroke-linecap="butt" d="m34.95313 0l4.9763794 0l0 446.29922l-4.9763794 0z" fill-rule="evenodd"/><path fill="#00cdac" d="m44.333073 0l5.5433083 0l0 424.18896l-5.5433083 0z" fill-rule="evenodd"/><path stroke="#000000" stroke-width="1.0" stroke-linejoin="round" stroke-linecap="butt" d="m44.333073 0l5.5433083 0l0 424.18896l-5.5433083 0z" fill-rule="evenodd"/><path fill="#00cdac" d="m54.84532 0l4.9763794 0l0 435.90552l-4.9763794 0z" fill-rule="evenodd"/><path stroke="#000000" stroke-width="1.0" stroke-linejoin="round" stroke-linecap="butt" d="m54.84532 0l4.9763794 0l0 435.90552l-4.9763794 0z" fill-rule="evenodd"/><path fill="#00cdac" d="m64.22626 0l5.543312 0l0 385.16534l-5.543312 0z" fill-rule="evenodd"/><path stroke="#000000" stroke-width="1.0" stroke-linejoin="round" stroke-linecap="butt" d="m64.22626 0l5.543312 0l0 385.16534l-5.543312 0z" fill-rule="evenodd"/><path fill="#00cdac" d="m74.73597 0l4.9763794 0l0 363.02362l-4.9763794 0z" fill-rule="evenodd"/><path stroke="#000000" stroke-width="1.0" stroke-linejoin="round" stroke-linecap="butt" d="m74.73597 0l4.9763794 0l0 363.02362l-4.9763794 0z" fill-rule="evenodd"/><path fill="#00cdac" d="m89.65674 0l-4.9763794 0l0 373.44882l4.9763794 0z" fill-rule="evenodd"/><path stroke="#000000" stroke-width="1.0" stroke-linejoin="round" stroke-linecap="butt" d="m89.65674 0l-4.9763794 0l0 373.44882l4.9763794 0z" fill-rule="evenodd"/><path fill="#00cdac" d="m94.627815 0l4.9763794 0l0 324.6299l-4.9763794 0z" fill-rule="evenodd"/><path stroke="#000000" stroke-width="1.0" stroke-linejoin="round" stroke-linecap="butt" d="m94.627815 0l4.9763794 0l0 324.6299l-4.9763794 0z" fill-rule="evenodd"/><path fill="#00cdac" d="m104.005936 0l5.5433044 0l0 305.7953l-5.5433044 0z" fill-rule="evenodd"/><path stroke="#000000" stroke-width="1.0" stroke-linejoin="round" stroke-linecap="butt" d="m104.005936 0l5.5433044 0l0 305.7953l-5.5433044 0z" fill-rule="evenodd"/><path fill="#00cdac" d="m147.53075 0l5.5433044 0l0 236.8189l-5.5433044 0z" fill-rule="evenodd"/><path stroke="#000000" stroke-width="1.0" stroke-linejoin="round" stroke-linecap="butt" d="m147.53075 0l5.5433044 0l0 236.8189l-5.5433044 0z" fill-rule="evenodd"/><path fill="#00cdac" d="m141.88612 3.8897638l-4.9763794 0l0 266.77164l4.9763794 0z" fill-rule="evenodd"/><path stroke="#000000" stroke-width="1.0" stroke-linejoin="round" stroke-linecap="butt" d="m141.88612 3.8897638l-4.9763794 0l0 266.77164l4.9763794 0z" fill-rule="evenodd"/><path fill="#00cdac" d="m131.26631 3.2440944l-4.9763794 0l0 266.77167l4.9763794 0z" fill-rule="evenodd"/><path stroke="#000000" stroke-width="1.0" stroke-linejoin="round" stroke-linecap="butt" d="m131.26631 3.2440944l-4.9763794 0l0 266.77167l4.9763794 0z" fill-rule="evenodd"/><path fill="#00cdac" d="m120.131226 2.6141732l-4.9763794 0l0 344.8189l4.9763794 0z" fill-rule="evenodd"/><path stroke="#000000" stroke-width="1.0" stroke-linejoin="round" stroke-linecap="butt" d="m120.131226 2.6141732l-4.9763794 0l0 344.8189l4.9763794 0z" fill-rule="evenodd"/><path fill="#00cdac" d="m327.0304 3.2440944l-4.9763794 0l0 104.40945l4.9763794 0z" fill-rule="evenodd"/><path stroke="#000000" stroke-width="1.0" stroke-linejoin="round" stroke-linecap="butt" d="m327.0304 3.2440944l-4.9763794 0l0 104.40945l4.9763794 0z" fill-rule="evenodd"/><path fill="#00cdac" d="m317.6509 3.2440944l-5.5433044 0l0 139.87401l5.5433044 0z" fill-rule="evenodd"/><path stroke="#000000" stroke-width="1.0" stroke-linejoin="round" stroke-linecap="butt" d="m317.6509 3.2440944l-5.5433044 0l0 139.87401l5.5433044 0z" fill-rule="evenodd"/><path fill="#00cdac" d="m337.28876 3.2440944l-4.9763794 0l0 191.93701l4.9763794 0z" fill-rule="evenodd"/><path stroke="#000000" stroke-width="1.0" stroke-linejoin="round" stroke-linecap="butt" d="m337.28876 3.2440944l-4.9763794 0l0 191.93701l4.9763794 0z" fill-rule="evenodd"/><path fill="#00cdac" d="m348.42438 3.2440944l-4.9763794 0l0 104.40945l4.9763794 0z" fill-rule="evenodd"/><path stroke="#000000" stroke-width="1.0" stroke-linejoin="round" stroke-linecap="butt" d="m348.42438 3.2440944l-4.9763794 0l0 104.40945l4.9763794 0z" fill-rule="evenodd"/><path fill="#00cdac" d="m359.10507 3.2440944l-4.9763794 0l0 104.40945l4.9763794 0z" fill-rule="evenodd"/><path stroke="#000000" stroke-width="1.0" stroke-linejoin="round" stroke-linecap="butt" d="m359.10507 3.2440944l-4.9763794 0l0 104.40945l4.9763794 0z" fill-rule="evenodd"/><path fill="#00cdac" d="m369.04678 0l-4.9763794 0l0 104.40945l4.9763794 0z" fill-rule="evenodd"/><path stroke="#000000" stroke-width="1.0" stroke-linejoin="round" stroke-linecap="butt" d="m369.04678 0l-4.9763794 0l0 104.40945l4.9763794 0z" fill-rule="evenodd"/><path fill="#00cdac" d="m380.0105 0l-4.9763794 0l0 104.40945l4.9763794 0z" fill-rule="evenodd"/><path stroke="#000000" stroke-width="1.0" stroke-linejoin="round" stroke-linecap="butt" d="m380.0105 0l-4.9763794 0l0 104.40945l4.9763794 0z" fill-rule="evenodd"/><path fill="#00cdac" d="m389.6118 0l-4.9763794 0l0 104.40945l4.9763794 0z" fill-rule="evenodd"/><path stroke="#000000" stroke-width="1.0" stroke-linejoin="round" stroke-linecap="butt" d="m389.6118 0l-4.9763794 0l0 104.40945l4.9763794 0z" fill-rule="evenodd"/><path fill="#00cdac" d="m399.98172 0l-4.976349 0l0 104.40945l4.976349 0z" fill-rule="evenodd"/><path stroke="#000000" stroke-width="1.0" stroke-linejoin="round" stroke-linecap="butt" d="m399.98172 0l-4.976349 0l0 104.40945l4.976349 0z" fill-rule="evenodd"/><path fill="#00cdac" d="m410.50574 0l-4.9763794 0l0 104.40945l4.9763794 0z" fill-rule="evenodd"/><path stroke="#000000" stroke-width="1.0" stroke-linejoin="round" stroke-linecap="butt" d="m410.50574 0l-4.9763794 0l0 104.40945l4.9763794 0z" fill-rule="evenodd"/><path fill="#00cdac" d="m420.74023 0l-4.976349 0l0 104.40945l4.976349 0z" fill-rule="evenodd"/><path stroke="#000000" stroke-width="1.0" stroke-linejoin="round" stroke-linecap="butt" d="m420.74023 0l-4.976349 0l0 104.40945l4.976349 0z" fill-rule="evenodd"/><path fill="#00cdac" d="m430.9733 2.1259842l-4.9763794 0l0 104.40945l4.9763794 0z" fill-rule="evenodd"/><path stroke="#000000" stroke-width="1.0" stroke-linejoin="round" stroke-linecap="butt" d="m430.9733 2.1259842l-4.9763794 0l0 104.40945l4.9763794 0z" fill-rule="evenodd"/><path fill="#00cdac" d="m441.937 2.1259842l-4.9763794 0l0 104.40945l4.9763794 0z" fill-rule="evenodd"/><path stroke="#000000" stroke-width="1.0" stroke-linejoin="round" stroke-linecap="butt" d="m441.937 2.1259842l-4.9763794 0l0 104.40945l4.9763794 0z" fill-rule="evenodd"/><path fill="#00cdac" d="m452.21152 3.7480314l-4.9763794 0l0 104.40945l4.9763794 0z" fill-rule="evenodd"/><path stroke="#000000" stroke-width="1.0" stroke-linejoin="round" stroke-linecap="butt" d="m452.21152 3.7480314l-4.9763794 0l0 104.40945l4.9763794 0z" fill-rule="evenodd"/><path fill="#00cdac" d="m462.48697 0l-4.976349 0l0 104.40945l4.976349 0z" fill-rule="evenodd"/><path stroke="#000000" stroke-width="1.0" stroke-linejoin="round" stroke-linecap="butt" d="m462.48697 0l-4.976349 0l0 104.40945l4.976349 0z" fill-rule="evenodd"/><path fill="#00cdac" d="m473.18292 3.7480314l-4.9763794 0l0 104.40945l4.9763794 0z" fill-rule="evenodd"/><path stroke="#000000" stroke-width="1.0" stroke-linejoin="round" stroke-linecap="butt" d="m473.18292 3.7480314l-4.9763794 0l0 104.40945l4.9763794 0z" fill-rule="evenodd"/><path fill="#00cdac" d="m483.86362 3.7480314l-4.9763794 0l0 104.40945l4.9763794 0z" fill-rule="evenodd"/><path stroke="#000000" stroke-width="1.0" stroke-linejoin="round" stroke-linecap="butt" d="m483.86362 3.7480314l-4.9763794 0l0 104.40945l4.9763794 0z" fill-rule="evenodd"/><path fill="#00cdac" d="m493.8053 0.503937l-4.9763794 0l0 104.40945l4.9763794 0z" fill-rule="evenodd"/><path stroke="#000000" stroke-width="1.0" stroke-linejoin="round" stroke-linecap="butt" d="m493.8053 0.503937l-4.9763794 0l0 104.40945l4.9763794 0z" fill-rule="evenodd"/><path fill="#00cdac" d="m504.76904 0.503937l-4.9763794 0l0 104.40945l4.9763794 0z" fill-rule="evenodd"/><path stroke="#000000" stroke-width="1.0" stroke-linejoin="round" stroke-linecap="butt" d="m504.76904 0.503937l-4.9763794 0l0 104.40945l4.9763794 0z" fill-rule="evenodd"/><path fill="#00cdac" d="m515.03546 0l-4.97641 0l0 104.40945l4.97641 0z" fill-rule="evenodd"/><path stroke="#000000" stroke-width="1.0" stroke-linejoin="round" stroke-linecap="butt" d="m515.03546 0l-4.97641 0l0 104.40945l4.97641 0z" fill-rule="evenodd"/><path fill="#00cdac" d="m525.4869 2.1259842l-4.9763794 0l0 104.40945l4.9763794 0z" fill-rule="evenodd"/><path stroke="#000000" stroke-width="1.0" stroke-linejoin="round" stroke-linecap="butt" d="m525.4869 2.1259842l-4.9763794 0l0 104.40945l4.9763794 0z" fill-rule="evenodd"/><path fill="#00cdac" d="m535.84644 0.503937l-4.9763794 0l0 104.40945l4.9763794 0z" fill-rule="evenodd"/><path stroke="#000000" stroke-width="1.0" stroke-linejoin="round" stroke-linecap="butt" d="m535.84644 0.503937l-4.9763794 0l0 104.40945l4.9763794 0z" fill-rule="evenodd"/></g></svg>