<svg version="1.1" viewBox="0.0 0.0 960.0 540.0" fill="none" stroke="none" stroke-linecap="square" stroke-miterlimit="10" xmlns:xlink="http://www.w3.org/1999/xlink" xmlns="http://www.w3.org/2000/svg"><clipPath id="p1.0"><path d="m0 0l960.0 0l0 540.0l-960.0 0l0 -540.0z" clip-rule="nonzero"/></clipPath><g clip-path="url(#p1.0)"><path fill="#000000" d="m0 0l960.0 0l0 540.0l-960.0 0z" fill-rule="evenodd"/><path fill="#000077" d="m13.0131235 0l6.4881887 0l0 465.82675l-6.4881887 0z" fill-rule="evenodd"/><path stroke="#000000" stroke-width="1.0" stroke-linejoin="round" stroke-linecap="butt" d="m13.0131235 0l6.4881887 0l0 465.82675l-6.4881887 0z" fill-rule="evenodd"/><path fill="#000077" d="m26.026247 0l6.488188 0l0 392.97638l-6.488188 0z" fill-rule="evenodd"/><path stroke="#000000" stroke-width="1.0" stroke-linejoin="round" stroke-linecap="butt" d="m26.026247 0l6.488188 0l0 392.97638l-6.488188 0z" fill-rule="evenodd"/><path fill="#000077" d="m39.03937 0l6.488186 0l0 424.18896l-6.488186 0z" fill-rule="evenodd"/><path stroke="#000000" stroke-width="1.0" stroke-linejoin="round" stroke-linecap="butt" d="m39.03937 0l6.488186 0l0 424.18896l-6.488186 0z" fill-rule="evenodd"/><path fill="#000077" d="m52.052494 0l6.4881897 0l0 357.82678l-6.4881897 0z" fill-rule="evenodd"/><path stroke="#000000" stroke-width="1.0" stroke-linejoin="round" stroke-linecap="butt" d="m52.052494 0l6.4881897 0l0 357.82678l-6.4881897 0z" fill-rule="evenodd"/><path fill="#000077" d="m65.06562 0l6.488182 0l0 392.97638l-6.488182 0z" fill-rule="evenodd"/><path stroke="#000000" stroke-width="1.0" stroke-linejoin="round" stroke-linecap="butt" d="m65.06562 0l6.488182 0l0 392.97638l-6.488182 0z" fill-rule="evenodd"/><path fill="#000077" d="m78.07874 0l6.4881897 0l0 291.46457l-6.4881897 0z" fill-rule="evenodd"/><path stroke="#000000" stroke-width="1.0" stroke-linejoin="round" stroke-linecap="butt" d="m78.07874 0l6.4881897 0l0 291.46457l-6.4881897 0z" fill-rule="evenodd"/><path fill="#000077" d="m91.091866 0l6.4881897 0l0 305.7953l-6.4881897 0z" fill-rule="evenodd"/><path stroke="#000000" stroke-width="1.0" stroke-linejoin="round" stroke-linecap="butt" d="m91.091866 0l6.4881897 0l0 305.7953l-6.4881897 0z" fill-rule="evenodd"/><path fill="#000077" d="m104.10499 0l6.4881897 0l0 253.73228l-6.4881897 0z" fill-rule="evenodd"/><path stroke="#000000" stroke-width="1.0" stroke-linejoin="round" stroke-linecap="butt" d="m104.10499 0l6.4881897 0l0 253.73228l-6.4881897 0z" fill-rule="evenodd"/><path fill="#000077" d="m117.11811 0l6.4881897 0l0 208.18898l-6.4881897 0z" fill-rule="evenodd"/><path stroke="#000000" stroke-width="1.0" stroke-linejoin="round" stroke-linecap="butt" d="m117.11811 0l6.4881897 0l0 208.18898l-6.4881897 0z" fill-rule="evenodd"/><path fill="#000077" d="m130.13124 0l6.4881744 0l0 179.55905l-6.4881744 0z" fill-rule="evenodd"/><path stroke="#000000" stroke-width="1.0" stroke-linejoin="round" stroke-linecap="butt" d="m130.13124 0l6.4881744 0l0 179.55905l-6.4881744 0z" fill-rule="evenodd"/><path fill="#000077" d="m143.14436 0l6.4881897 0l0 145.73228l-6.4881897 0z" fill-rule="evenodd"/><path stroke="#000000" stroke-width="1.0" stroke-linejoin="round" stroke-linecap="butt" d="m143.14436 0l6.4881897 0l0 145.73228l-6.4881897 0z" fill-rule="evenodd"/><path fill="#000077" d="m169.17061 0l6.4881897 0l0 145.73228l-6.4881897 0z" fill-rule="evenodd"/><path stroke="#000000" stroke-width="1.0" stroke-linejoin="round" stroke-linecap="butt" d="m169.17061 0l6.4881897 0l0 145.73228l-6.4881897 0z" fill-rule="evenodd"/><path fill="#000077" d="m182.18373 0l6.4881897 0l0 145.73228l-6.4881897 0z" fill-rule="evenodd"/><path stroke="#000000" stroke-width="1.0" stroke-linejoin="round" stroke-linecap="butt" d="m182.18373 0l6.4881897 0l0 145.73228l-6.4881897 0z" fill-rule="evenodd"/><path fill="#000077" d="m195.19685 0l6.4881897 0l0 208.18898l-6.4881897 0z" fill-rule="evenodd"/><path stroke="#000000" stroke-width="1.0" stroke-linejoin="round" stroke-linecap="butt" d="m195.19685 0l6.4881897 0l0 208.18898l-6.4881897 0z" fill-rule="evenodd"/><path fill="#000077" d="m208.20998 0l6.4881897 0l0 253.73228l-6.4881897 0z" fill-rule="evenodd"/><path stroke="#000000" stroke-width="1.0" stroke-linejoin="round" stroke-linecap="butt" d="m208.20998 0l6.4881897 0l0 253.73228l-6.4881897 0z" fill-rule="evenodd"/><path fill="#000077" d="m221.2231 0l6.4881897 0l0 230.29921l-6.4881897 0z" fill-rule="evenodd"/><path stroke="#000000" stroke-width="1.0" stroke-linejoin="round" stroke-linecap="butt" d="m221.2231 0l6.4881897 0l0 230.29921l-6.4881897 0z" fill-rule="evenodd"/><path fill="#000077" d="m234.23622 0l6.4881897 0l0 145.73228l-6.4881897 0z" fill-rule="evenodd"/><path stroke="#000000" stroke-width="1.0" stroke-linejoin="round" stroke-linecap="butt" d="m234.23622 0l6.4881897 0l0 145.73228l-6.4881897 0z" fill-rule="evenodd"/><path fill="#000077" d="m253.73753 0l-6.4881897 0l0 230.29921l6.4881897 0z" fill-rule="evenodd"/><path stroke="#000000" stroke-width="1.0" stroke-linejoin="round" stroke-linecap="butt" d="m253.73753 0l-6.4881897 0l0 230.29921l6.4881897 0z" fill-rule="evenodd"/><path fill="#000077" d="m273.2756 0l6.4881897 0l0 321.38583l-6.4881897 0z" fill-rule="evenodd"/><path stroke="#000000" stroke-width="1.0" stroke-linejoin="round" stroke-linecap="butt" d="m273.2756 0l6.4881897 0l0 321.38583l-6.4881897 0z" fill-rule="evenodd"/><path fill="#000077" d="m286.28873 0l6.4881897 0l0 284.97638l-6.4881897 0z" fill-rule="evenodd"/><path stroke="#000000" stroke-width="1.0" stroke-linejoin="round" stroke-linecap="butt" d="m286.28873 0l6.4881897 0l0 284.97638l-6.4881897 0z" fill-rule="evenodd"/><path fill="#000077" d="m299.30185 0l6.4881897 0l0 253.73228l-6.4881897 0z" fill-rule="evenodd"/><path stroke="#000000" stroke-width="1.0" stroke-linejoin="round" stroke-linecap="butt" d="m299.30185 0l6.4881897 0l0 253.73228l-6.4881897 0z" fill-rule="evenodd"/><path fill="#000077" d="m312.31442 0l6.4881897 0l0 305.7953l-6.4881897 0z" fill-rule="evenodd"/><path stroke="#000000" stroke-width="1.0" stroke-linejoin="round" stroke-linecap="butt" d="m312.31442 0l6.4881897 0l0 305.7953l-6.4881897 0z" fill-rule="evenodd"/><path fill="#000077" d="m325.3281 0l6.4881897 0l0 208.18898l-6.4881897 0z" fill-rule="evenodd"/><path stroke="#000000" stroke-width="1.0" stroke-linejoin="round" stroke-linecap="butt" d="m325.3281 0l6.4881897 0l0 208.18898l-6.4881897 0z" fill-rule="evenodd"/><path fill="#000077" d="m338.34122 0l6.4881897 0l0 139.2441l-6.4881897 0z" fill-rule="evenodd"/><path stroke="#000000" stroke-width="1.0" stroke-linejoin="round" stroke-linecap="butt" d="m338.34122 0l6.4881897 0l0 139.2441l-6.4881897 0z" fill-rule="evenodd"/><path fill="#000077" d="m473.38058 0l6.4881897 0l0 179.55905l-6.4881897 0z" fill-rule="evenodd"/><path stroke="#000000" stroke-width="1.0" stroke-linejoin="round" stroke-linecap="butt" d="m473.38058 0l6.4881897 0l0 179.55905l-6.4881897 0z" fill-rule="evenodd"/><path fill="#000077" d="m377.38058 0l6.4881897 0l0 179.55905l-6.4881897 0z" fill-rule="evenodd"/><path stroke="#000000" stroke-width="1.0" stroke-linejoin="round" stroke-linecap="butt" d="m377.38058 0l6.4881897 0l0 179.55905l-6.4881897 0z" fill-rule="evenodd"/><path fill="#000077" d="m364.36746 0l6.4881897 0l0 214.04724l-6.4881897 0z" fill-rule="evenodd"/><path stroke="#000000" stroke-width="1.0" stroke-linejoin="round" stroke-linecap="butt" d="m364.36746 0l6.4881897 0l0 214.04724l-6.4881897 0z" fill-rule="evenodd"/><path fill="#000077" d="m351.35434 0l6.4881897 0l0 184.78741l-6.4881897 0z" fill-rule="evenodd"/><path stroke="#000000" stroke-width="1.0" stroke-linejoin="round" stroke-linecap="butt" d="m351.35434 0l6.4881897 0l0 184.78741l-6.4881897 0z" fill-rule="evenodd"/><path fill="#000077" d="m266.7499 0l-6.4881897 0l0 145.73228l6.4881897 0z" fill-rule="evenodd"/><path stroke="#000000" stroke-width="1.0" stroke-linejoin="round" stroke-linecap="butt" d="m266.7499 0l-6.4881897 0l0 145.73228l6.4881897 0z" fill-rule="evenodd"/><path fill="#000077" d="m156.15749 0l6.4881897 0l0 179.55905l-6.4881897 0z" fill-rule="evenodd"/><path stroke="#000000" stroke-width="1.0" stroke-linejoin="round" stroke-linecap="butt" d="m156.15749 0l6.4881897 0l0 179.55905l-6.4881897 0z" fill-rule="evenodd"/><path fill="#000077" d="m393.38058 2.6141732l6.4881897 0l0 179.55907l-6.4881897 0z" fill-rule="evenodd"/><path stroke="#000000" stroke-width="1.0" stroke-linejoin="round" stroke-linecap="butt" d="m393.38058 2.6141732l6.4881897 0l0 179.55907l-6.4881897 0z" fill-rule="evenodd"/><path fill="#000077" d="m409.38058 2.6141732l6.4881897 0l0 179.55907l-6.4881897 0z" fill-rule="evenodd"/><path stroke="#000000" stroke-width="1.0" stroke-linejoin="round" stroke-linecap="butt" d="m409.38058 2.6141732l6.4881897 0l0 179.55907l-6.4881897 0z" fill-rule="evenodd"/><path fill="#000077" d="m425.38058 2.6141732l6.4881897 0l0 179.55907l-6.4881897 0z" fill-rule="evenodd"/><path stroke="#000000" stroke-width="1.0" stroke-linejoin="round" stroke-linecap="butt" d="m425.38058 2.6141732l6.4881897 0l0 179.55907l-6.4881897 0z" fill-rule="evenodd"/><path fill="#000077" d="m441.38058 2.6141732l6.4881897 0l0 179.55907l-6.4881897 0z" fill-rule="evenodd"/><path stroke="#000000" stroke-width="1.0" stroke-linejoin="round" stroke-linecap="butt" d="m441.38058 2.6141732l6.4881897 0l0 179.55907l-6.4881897 0z" fill-rule="evenodd"/><path fill="#000077" d="m457.38058 2.6141732l6.4881897 0l0 179.55907l-6.4881897 0z" fill-rule="evenodd"/><path stroke="#000000" stroke-width="1.0" stroke-linejoin="round" stroke-linecap="butt" d="m457.38058 2.6141732l6.4881897 0l0 179.55907l-6.4881897 0z" fill-rule="evenodd"/><path fill="#000077" d="m489.38058 0l6.4881897 0l0 184.78741l-6.4881897 0z" fill-rule="evenodd"/><path stroke="#000000" stroke-width="1.0" stroke-linejoin="round" stroke-linecap="butt" d="m489.38058 0l6.4881897 0l0 184.78741l-6.4881897 0z" fill-rule="evenodd"/><path fill="#000077" d="m505.38058 0l6.4881897 0l0 184.78741l-6.4881897 0z" fill-rule="evenodd"/><path stroke="#000000" stroke-width="1.0" stroke-linejoin="round" stroke-linecap="butt" d="m505.38058 0l6.4881897 0l0 184.78741l-6.4881897 0z" fill-rule="evenodd"/><path fill="#000077" d="m521.38055 0l6.48822 0l0 236.81891l-6.48822 0z" fill-rule="evenodd"/><path stroke="#000000" stroke-width="1.0" stroke-linejoin="round" stroke-linecap="butt" d="m521.38055 0l6.48822 0l0 236.81891l-6.48822 0z" fill-rule="evenodd"/><path fill="#000077" d="m537.38055 0l6.48822 0l0 184.78741l-6.48822 0z" fill-rule="evenodd"/><path stroke="#000000" stroke-width="1.0" stroke-linejoin="round" stroke-linecap="butt" d="m537.38055 0l6.48822 0l0 184.78741l-6.48822 0z" fill-rule="evenodd"/><path fill="#000077" d="m553.38055 0l6.48822 0l0 311.3701l-6.48822 0z" fill-rule="evenodd"/><path stroke="#000000" stroke-width="1.0" stroke-linejoin="round" stroke-linecap="butt" d="m553.38055 0l6.48822 0l0 311.3701l-6.48822 0z" fill-rule="evenodd"/><path fill="#000077" d="m569.38055 0l6.48822 0l0 253.73228l-6.48822 0z" fill-rule="evenodd"/><path stroke="#000000" stroke-width="1.0" stroke-linejoin="round" stroke-linecap="butt" d="m569.38055 0l6.48822 0l0 253.73228l-6.48822 0z" fill-rule="evenodd"/><path fill="#000077" d="m585.38055 0l6.48822 0l0 284.97638l-6.48822 0z" fill-rule="evenodd"/><path stroke="#000000" stroke-width="1.0" stroke-linejoin="round" stroke-linecap="butt" d="m585.38055 0l6.48822 0l0 284.97638l-6.48822 0z" fill-rule="evenodd"/><path fill="#000077" d="m601.38055 0l6.48822 0l0 370.83466l-6.48822 0z" fill-rule="evenodd"/><path stroke="#000000" stroke-width="1.0" stroke-linejoin="round" stroke-linecap="butt" d="m601.38055 0l6.48822 0l0 370.83466l-6.48822 0z" fill-rule="evenodd"/><path fill="#000077" d="m617.38055 0l6.48822 0l0 214.04724l-6.48822 0z" fill-rule="evenodd"/><path stroke="#000000" stroke-width="1.0" stroke-linejoin="round" stroke-linecap="butt" d="m617.38055 0l6.48822 0l0 214.04724l-6.48822 0z" fill-rule="evenodd"/><path fill="#000077" d="m633.38055 0l6.48822 0l0 243.33858l-6.48822 0z" fill-rule="evenodd"/><path stroke="#000000" stroke-width="1.0" stroke-linejoin="round" stroke-linecap="butt" d="m633.38055 0l6.48822 0l0 243.33858l-6.48822 0z" fill-rule="evenodd"/><path fill="#000077" d="m646.3937 0l6.48822 0l0 253.73228l-6.48822 0z" fill-rule="evenodd"/><path stroke="#000000" stroke-width="1.0" stroke-linejoin="round" stroke-linecap="butt" d="m646.3937 0l6.48822 0l0 253.73228l-6.48822 0z" fill-rule="evenodd"/><path fill="#000077" d="m659.4068 0l6.48822 0l0 321.38583l-6.48822 0z" fill-rule="evenodd"/><path stroke="#000000" stroke-width="1.0" stroke-linejoin="round" stroke-linecap="butt" d="m659.4068 0l6.48822 0l0 321.38583l-6.48822 0z" fill-rule="evenodd"/><path fill="#000077" d="m672.4199 0l6.48822 0l0 279.74802l-6.48822 0z" fill-rule="evenodd"/><path stroke="#000000" stroke-width="1.0" stroke-linejoin="round" stroke-linecap="butt" d="m672.4199 0l6.48822 0l0 279.74802l-6.48822 0z" fill-rule="evenodd"/><path fill="#000077" d="m685.43304 0l6.48822 0l0 101.480316l-6.48822 0z" fill-rule="evenodd"/><path stroke="#000000" stroke-width="1.0" stroke-linejoin="round" stroke-linecap="butt" d="m685.43304 0l6.48822 0l0 101.480316l-6.48822 0z" fill-rule="evenodd"/><path fill="#000077" d="m698.44617 0l6.48822 0l0 184.78741l-6.48822 0z" fill-rule="evenodd"/><path stroke="#000000" stroke-width="1.0" stroke-linejoin="round" stroke-linecap="butt" d="m698.44617 0l6.48822 0l0 184.78741l-6.48822 0z" fill-rule="evenodd"/><path fill="#000077" d="m711.4593 0l6.48822 0l0 465.82675l-6.48822 0z" fill-rule="evenodd"/><path stroke="#000000" stroke-width="1.0" stroke-linejoin="round" stroke-linecap="butt" d="m711.4593 0l6.48822 0l0 465.82675l-6.48822 0z" fill-rule="evenodd"/><path fill="#000077" d="m724.4724 0l6.48822 0l0 53.354332l-6.48822 0z" fill-rule="evenodd"/><path stroke="#000000" stroke-width="1.0" stroke-linejoin="round" stroke-linecap="butt" d="m724.4724 0l6.48822 0l0 53.354332l-6.48822 0z" fill-rule="evenodd"/><path fill="#000077" d="m737.48553 0l6.48822 0l0 496.15747l-6.48822 0z" fill-rule="evenodd"/><path stroke="#000000" stroke-width="1.0" stroke-linejoin="round" stroke-linecap="butt" d="m737.48553 0l6.48822 0l0 496.15747l-6.48822 0z" fill-rule="evenodd"/><path fill="#000077" d="m753.48553 0l6.48822 0l0 413.79526l-6.48822 0z" fill-rule="evenodd"/><path stroke="#000000" stroke-width="1.0" stroke-linejoin="round" stroke-linecap="butt" d="m753.48553 0l6.48822 0l0 413.79526l-6.48822 0z" fill-rule="evenodd"/><path fill="#000077" d="m769.48553 0l6.48822 0l0 184.78741l-6.48822 0z" fill-rule="evenodd"/><path stroke="#000000" stroke-width="1.0" stroke-linejoin="round" stroke-linecap="butt" d="m769.48553 0l6.48822 0l0 184.78741l-6.48822 0z" fill-rule="evenodd"/><path fill="#000077" d="m782.49866 0l6.48822 0l0 270.01575l-6.48822 0z" fill-rule="evenodd"/><path stroke="#000000" stroke-width="1.0" stroke-linejoin="round" stroke-linecap="butt" d="m782.49866 0l6.48822 0l0 270.01575l-6.48822 0z" fill-rule="evenodd"/><path fill="#000077" d="m795.51184 0l6.488159 0l0 284.97638l-6.488159 0z" fill-rule="evenodd"/><path stroke="#000000" stroke-width="1.0" stroke-linejoin="round" stroke-linecap="butt" d="m795.51184 0l6.488159 0l0 284.97638l-6.488159 0z" fill-rule="evenodd"/><path fill="#000077" d="m808.52496 0l6.488159 0l0 300.56693l-6.488159 0z" fill-rule="evenodd"/><path stroke="#000000" stroke-width="1.0" stroke-linejoin="round" stroke-linecap="butt" d="m808.52496 0l6.488159 0l0 300.56693l-6.488159 0z" fill-rule="evenodd"/><path fill="#000077" d="m821.5381 0l6.488159 0l0 327.90552l-6.488159 0z" fill-rule="evenodd"/><path stroke="#000000" stroke-width="1.0" stroke-linejoin="round" stroke-linecap="butt" d="m821.5381 0l6.488159 0l0 327.90552l-6.488159 0z" fill-rule="evenodd"/><path fill="#000077" d="m834.5512 0l6.488159 0l0 357.82678l-6.488159 0z" fill-rule="evenodd"/><path stroke="#000000" stroke-width="1.0" stroke-linejoin="round" stroke-linecap="butt" d="m834.5512 0l6.488159 0l0 357.82678l-6.488159 0z" fill-rule="evenodd"/><path fill="#000077" d="m847.56433 0l6.488159 0l0 270.01575l-6.488159 0z" fill-rule="evenodd"/><path stroke="#000000" stroke-width="1.0" stroke-linejoin="round" stroke-linecap="butt" d="m847.56433 0l6.488159 0l0 270.01575l-6.488159 0z" fill-rule="evenodd"/><path fill="#000077" d="m860.57745 0l6.488159 0l0 424.18896l-6.488159 0z" fill-rule="evenodd"/><path stroke="#000000" stroke-width="1.0" stroke-linejoin="round" stroke-linecap="butt" d="m860.57745 0l6.488159 0l0 424.18896l-6.488159 0z" fill-rule="evenodd"/><path fill="#000077" d="m873.5906 0l6.488159 0l0 327.90552l-6.488159 0z" fill-rule="evenodd"/><path stroke="#000000" stroke-width="1.0" stroke-linejoin="round" stroke-linecap="butt" d="m873.5906 0l6.488159 0l0 327.90552l-6.488159 0z" fill-rule="evenodd"/><path fill="#000077" d="m886.6037 0l6.488159 0l0 413.79526l-6.488159 0z" fill-rule="evenodd"/><path stroke="#000000" stroke-width="1.0" stroke-linejoin="round" stroke-linecap="butt" d="m886.6037 0l6.488159 0l0 413.79526l-6.488159 0z" fill-rule="evenodd"/><path fill="#000077" d="m899.6168 0l6.488159 0l0 338.29922l-6.488159 0z" fill-rule="evenodd"/><path stroke="#000000" stroke-width="1.0" stroke-linejoin="round" stroke-linecap="butt" d="m899.6168 0l6.488159 0l0 338.29922l-6.488159 0z" fill-rule="evenodd"/><path fill="#000077" d="m912.62994 0l6.488159 0l0 442.4252l-6.488159 0z" fill-rule="evenodd"/><path stroke="#000000" stroke-width="1.0" stroke-linejoin="round" stroke-linecap="butt" d="m912.62994 0l6.488159 0l0 442.4252l-6.488159 0z" fill-rule="evenodd"/><path fill="#000077" d="m925.64307 0l6.488159 0l0 236.81891l-6.488159 0z" fill-rule="evenodd"/><path stroke="#000000" stroke-width="1.0" stroke-linejoin="round" stroke-linecap="butt" d="m925.64307 0l6.488159 0l0 236.81891l-6.488159 0z" fill-rule="evenodd"/><path fill="#000077" d="m938.6562 2.6141732l6.488159 0l0 184.78741l-6.488159 0z" fill-rule="evenodd"/><path stroke="#000000" stroke-width="1.0" stroke-linejoin="round" stroke-linecap="butt" d="m938.6562 2.6141732l6.488159 0l0 184.78741l-6.488159 0z" fill-rule="evenodd"/></g></svg>